<!-- Save as banner-star.svg -->
<svg xmlns="http://www.w3.org/2000/svg" viewBox="0 0 64 80" role="img" aria-label="Shield pennant with star">
  <style>
    :root {
      --outer: #1a2140;  /* outer shield */
      --inner: #2a315f;  /* inner panel */
      --star:  #bcd0ff;  /* star */
      --shadow: rgba(0,0,0,.25);
    }
  </style>

  <!-- soft drop shadow -->
  <filter id="f" x="-20%" y="-20%" width="140%" height="140%">
    <feDropShadow dx="0" dy="2" stdDeviation="2" flood-color="black" flood-opacity="0.25"/>
  </filter>

  <!-- OUTER SHIELD / PENNANT -->
  <!-- Rounded top, pointed bottom -->
  <path filter="url(#f)" fill="var(--outer)"
        d="M12 6a6 6 0 0 1 6-6h28a6 6 0 0 1 6 6v46L32 74 12 52V6Z"/>

  <!-- INNER PANEL (inset) -->
  <path fill="var(--inner)"
        d="M18 10a4 4 0 0 1 4-4h20a4 4 0 0 1 4 4v38L32 66 18 48V10Z"/>

  <!-- SIX-POINT STAR (Star of David style: two triangles) -->
  <!-- Up triangle -->
  <polygon fill="var(--star)"
           points="32,24 40,38 24,38"/>
  <!-- Down triangle -->
  <polygon fill="var(--star)"
           points="32,46 24,32 40,32"/>
</svg>
